<?xml version="1.0" encoding="utf-8"?>
<!-- Generator: Adobe Illustrator 24.0.0, SVG Export Plug-In . SVG Version: 6.00 Build 0)  -->
<svg version="1.1" id="Ebene_1" xmlns="http://www.w3.org/2000/svg" xmlns:xlink="http://www.w3.org/1999/xlink" x="0px" y="0px"
	 viewBox="0 0 300 74.4" style="enable-background:new 0 0 300 74.4;" xml:space="preserve">
<style type="text/css">
	.st0{fill:#8ABD24;}
	.st1{fill:#5A5D62;}
</style>
<g>
	<path class="st0" d="M39,25.7c-1.7,3.7,1.7,8.5,5.4,6.3c5.4-3.2,4.1-12.4,2.2-17.4C44.7,9.4,41,4.8,35.8,2.7
		c-5.5-2.2-12-1.3-17.1,1.7C8.2,10.7,5.8,25.6,7.4,36.8c0.1,1,0.3,2,0.5,3c2.7,11.8,9.1,22.8,23.3,28.9c13.8,5.9,20-2.3,20-6.7
		c0,0-5.7,9.2-17.9,3.7C21.5,60.3,15.6,51,13.1,42.8C10.5,34.5,6.8,8.2,26.4,5.2C42.2,2.7,42.3,18.5,39,25.7z"/>
	<path class="st0" d="M88.7,44.5c-0.5,0-0.9-0.3-1-0.7l-1.8-6c-0.2-0.7-0.9-1.2-1.6-1.1c-0.7,0.1-1.3,0.6-1.4,1.3l-2.1,10.9l-3.6-23
		c-0.1-0.7-0.7-1.2-1.4-1.2c-0.7,0-1.3,0.5-1.4,1.2l-4.5,26.8l-4-18.7c-0.1-0.5-0.6-0.9-1.1-1c-0.5-0.1-1,0.2-1.3,0.7l-4.5,9.7H42.9
		c-0.1-0.5-0.1-0.9-0.1-1.3c-0.2-1.7-0.5-3.5-1.9-4.5c-1.3-0.9-3.1-0.7-4.6-0.2c-1.5,0.6-2.9,1.4-4.5,1.6c-1.6,0.2-3.4-0.3-4-1.8
		c-0.6-1.6,0.1-3.5,1.3-4.7c1.8-2,3.9-3.8,5.4-6.1c1.4-2.2,2.7-4.8,2.4-7.4c-0.4-2.7-2.5-5.2-5.1-5.5c1.8,1.1,3.9,3.3,3.2,6.2
		c-0.5,2.1-2.1,3.8-3.7,5.2c-1.5,1.4-3.7,3-5.1,4.5c-2.9,3.2-5,7.5-4.3,11.8c0.6,4.3,3,7.5,6.7,9.9c3.1,2,7,2.7,10.7,3
		c2.5,0.1,5.1,0.2,7.6-0.2c1.6-0.2,2.8-1,2.5-2.9c-0.2-1.2-1.4-1.9-2.4-2.4c-0.9-0.5-1.9-0.9-2.6-1.6c-0.3-0.4-0.6-0.8-0.8-1.3h16.2
		c0.5,0,0.9-0.3,1.1-0.7l3.7-7.8l4.2,19.5c0.1,0.7,0.7,1.1,1.4,1.1c0.7,0,1.3-0.5,1.4-1.2l4.3-25.9l3.7,23.6c0.1,0.6,0.6,1,1.2,1
		c0.6,0,1.1-0.4,1.3-1l2.6-13.6l1.1,3.8c0.4,1.4,1.6,2.3,3,2.3h206.3v-2.2H88.7z"/>
	<g>
		<path class="st1" d="M109.5,35l2.9-3.4c2,1.7,4.1,2.7,6.7,2.7c2,0,3.2-0.8,3.2-2.1v-0.1c0-1.2-0.7-1.9-4.5-2.8
			c-4.5-1.1-7.4-2.4-7.4-6.8v-0.1c0-4,3.2-6.8,7.8-6.8c3.2,0,6,1.1,8.3,2.9l-2.5,3.7c-2-1.4-4-2.2-5.8-2.2c-1.9,0-2.9,0.9-2.9,1.9
			V22c0,1.4,0.9,1.9,4.8,2.9c4.5,1.2,7,2.9,7,6.8v0.1c0,4.4-3.4,6.9-8.2,6.9C115.6,38.6,112.2,37.4,109.5,35z"/>
		<path class="st1" d="M138.6,15.8h4.5l9.6,22.4h-5.2l-2-5h-9.4l-2.1,5h-5L138.6,15.8z M143.7,28.9l-2.9-7.2l-2.9,7.2H143.7z"/>
		<path class="st1" d="M163.1,15.8h4.5l9.6,22.4h-5.1l-2-5h-9.5l-2,5h-5L163.1,15.8z M168.3,28.9l-2.9-7.2l-2.9,7.2H168.3z"/>
		<polygon class="st1" points="175.6,16 181,16 186.8,31.7 192.7,16 198,16 188.9,38.4 184.6,38.4 		"/>
		<polygon class="st1" points="201.4,16 218.2,16 218.2,20.3 206.3,20.3 206.3,24.9 216.8,24.9 216.8,29.2 206.3,29.2 206.3,33.9 
			218.4,33.9 218.4,38.2 201.4,38.2 		"/>
		<path class="st1" d="M222.8,16h8.7c7,0,11.9,4.8,11.9,11.1v0.1c0,6.3-4.8,11.1-11.9,11.1h-8.7V16z M231.5,33.8
			c4,0,6.8-2.7,6.8-6.7v-0.1c0-4-2.7-6.8-6.8-6.8h-3.8v13.5H231.5z"/>
		<path class="st1" d="M247.7,16h10.2c2.8,0,5,0.8,6.5,2.2c1.3,1.3,1.9,3,1.9,5.1v0.1c0,3.6-1.9,5.9-4.8,6.9l5.5,8h-5.7l-4.7-7.1
			h-0.1h-3.8v7.1h-4.9V16z M257.6,26.8c2.4,0,3.8-1.3,3.8-3.2v-0.1c0-2.1-1.5-3.2-3.9-3.2h-4.9v6.5H257.6z"/>
		<path class="st1" d="M278.4,15.8h4.5l9.6,22.4h-5.1l-2.1-5h-9.4l-2,5h-5L278.4,15.8z M283.6,28.9l-2.9-7.2l-3,7.2H283.6z"/>
		<path d="M131.1,58.7L131.1,58.7c0-2.6,1.9-4.7,4.5-4.7c1.6,0,2.5,0.6,3.4,1.4l-0.5,0.5c-0.7-0.8-1.7-1.3-3-1.3
			c-2.2,0-3.7,1.7-3.7,4v0.1c0,2.2,1.7,4,3.8,4c1.3,0,2.2-0.5,3-1.4l0.5,0.4c-0.9,0.9-2,1.6-3.6,1.6
			C132.9,63.3,131.1,61.3,131.1,58.7z"/>
		<polygon points="140.9,54.2 147.3,54.2 147.3,54.8 141.6,54.8 141.6,58.4 146.7,58.4 146.7,58.9 141.6,58.9 141.6,62.6 
			147.4,62.6 147.4,63.2 140.9,63.2 		"/>
		<polygon points="149.5,54.2 150.1,54.2 156.4,62 156.4,54.2 156.9,54.2 156.9,63.2 156.4,63.2 150.2,55.2 150.2,63.2 149.5,63.2 
					"/>
		<polygon points="162.1,54.8 159,54.8 159,54.2 165.9,54.2 165.9,54.8 162.8,54.8 162.8,63.2 162.1,63.2 		"/>
		<path d="M167.9,54.2h3.7c1.1,0,2,0.4,2.6,0.9c0.4,0.4,0.6,1,0.6,1.7c0,1.5-1.1,2.4-2.7,2.6l3,3.8h-0.9l-2.9-3.7h-2.9v3.7h-0.6
			V54.2z M171.6,58.9c1.5,0,2.7-0.8,2.7-2.1c0-1.2-0.9-1.9-2.6-1.9h-3.1v4H171.6z"/>
		<path d="M176.8,58.7L176.8,58.7c0-2.4,1.9-4.7,4.5-4.7c2.7,0,4.5,2.2,4.5,4.6v0.1c0,2.4-1.8,4.6-4.5,4.6
			C178.6,63.3,176.8,61.2,176.8,58.7z M185.1,58.7L185.1,58.7c0-2.2-1.6-4-3.8-4s-3.8,1.7-3.8,4v0.1c0,2.2,1.7,4,3.8,4
			C183.5,62.7,185.1,60.9,185.1,58.7z"/>
		<path d="M187.5,61.9l0.4-0.5c0.9,0.9,1.9,1.3,3.2,1.3c1.4,0,2.3-0.7,2.3-1.7v-0.1c0-0.9-0.5-1.5-2.5-1.9c-2.2-0.4-3-1.1-3-2.5
			v-0.1c0-1.3,1.2-2.4,2.9-2.4c1.3,0,2.2,0.4,3,1.1l-0.4,0.5c-0.9-0.7-1.7-1-2.7-1c-1.3,0-2.2,0.7-2.2,1.7v0.1
			c0,0.9,0.5,1.5,2.6,1.9c2.1,0.4,2.9,1.1,2.9,2.4v0.1c0,1.4-1.2,2.4-2.9,2.4C189.6,63.3,188.6,62.8,187.5,61.9z"/>
		<path d="M203.5,54.1h0.6l4.2,9.1h-0.7l-1.1-2.5h-5.3l-1.1,2.5h-0.6L203.5,54.1z M206.2,60.1l-2.4-5.2l-2.4,5.2H206.2z"/>
		<path d="M209.8,59.4v-5.2h0.6v5.2c0,2.2,1.1,3.4,3,3.4c1.8,0,3-1.1,3-3.3v-5.2h0.6v5.2c0,2.6-1.5,4-3.7,4
			C211.3,63.3,209.8,61.9,209.8,59.4z"/>
		<path d="M219.6,54.2h3c2.8,0,4.7,1.9,4.7,4.5v0.1c0,2.5-1.9,4.5-4.7,4.5h-3V54.2z M220.3,54.8v7.8h2.4c2.4,0,4-1.7,4-3.9
			c0-2.2-1.6-3.9-4-3.9H220.3z"/>
		<rect x="229.7" y="54.2" width="0.8" height="9.1"/>
		<polygon points="235.6,54.8 232.5,54.8 232.5,54.2 239.4,54.2 239.4,54.8 236.3,54.8 236.3,63.2 235.6,63.2 		"/>
		<rect x="241.5" y="54.2" width="0.7" height="9.1"/>
		<polygon points="244.2,54.2 244.9,54.2 248.4,62.4 251.9,54.2 252.7,54.2 248.7,63.2 248.1,63.2 		"/>
		<path d="M253.7,58.7L253.7,58.7c0-2.4,1.8-4.7,4.5-4.7c2.7,0,4.5,2.2,4.5,4.6v0.1c0,2.4-1.8,4.6-4.5,4.6
			C255.5,63.3,253.7,61.2,253.7,58.7z M262,58.7L262,58.7c0-2.2-1.7-4-3.9-4c-2.2,0-3.8,1.7-3.8,4v0.1c0,2.2,1.7,4,3.9,4
			C260.4,62.7,262,60.9,262,58.7z"/>
		<path d="M264.3,61.9l0.4-0.5c1,0.9,1.9,1.3,3.2,1.3c1.4,0,2.2-0.7,2.2-1.7v-0.1c0-0.9-0.5-1.5-2.5-1.9c-2.2-0.4-3-1.1-3-2.5v-0.1
			c0-1.3,1.2-2.4,2.9-2.4c1.3,0,2.2,0.4,3.1,1.1l-0.4,0.5c-0.9-0.7-1.7-1-2.7-1c-1.4,0-2.2,0.7-2.2,1.7v0.1c0,0.9,0.5,1.5,2.7,1.9
			c2.1,0.4,2.9,1.1,2.9,2.4v0.1c0,1.4-1.3,2.4-3,2.4C266.5,63.3,265.4,62.8,264.3,61.9z"/>
	</g>
</g>
</svg>
